<svg width="287" height="296" viewBox="0 0 287 296" fill="none" xmlns="http://www.w3.org/2000/svg">
<rect x="12" y="109" width="209" height="167" fill="#2A323F"/>
<path d="M283.076 95.9226C282.75 92.0007 279.48 88.7312 275.559 88.4049C274.904 88.4026 230.119 85.1351 172.917 84.1547C170.628 81.5394 167.035 79.2524 162.785 77.6177L201.684 12.2411C203.973 8.31691 202.665 3.41466 198.743 1.12531C194.821 -1.16171 189.916 0.144833 187.629 4.069L145.46 74.3488H143.499H139.903L113.1 30.2185C110.811 26.2966 105.909 24.9901 101.984 27.277C98.0626 29.5663 96.7561 34.4685 99.0431 38.3905L122.905 77.9445C119.309 79.5794 116.042 81.5403 114.081 84.1558C56.8763 85.1363 12.0934 88.406 11.4396 88.406C7.51772 88.7321 4.2482 92.0018 3.9219 95.9237C3.9219 96.2498 9.93746e-07 140.706 9.93746e-07 188.105C-0.00227901 235.502 3.91956 279.959 3.91956 280.286C4.24562 284.208 7.51539 287.477 11.4373 287.803C11.7633 287.803 17.3223 288.129 26.8008 288.784C27.7813 292.706 31.051 295.65 35.2991 295.65C39.221 295.65 42.1649 293.36 43.4712 289.767C67.9874 291.073 104.598 292.382 143.497 292.382C182.068 292.382 218.027 291.076 242.87 289.767C244.176 293.037 247.446 295.65 251.042 295.65C255.292 295.65 258.56 292.708 259.54 289.113C269.678 288.458 275.235 288.13 275.56 288.13C279.482 287.804 282.752 284.534 283.078 280.612C283.078 280.286 287 233.867 287 188.431C287.002 142.997 283.08 96.577 283.08 95.9232L283.076 95.9226ZM247.773 121.091C252.675 121.091 256.599 125.013 256.599 129.917C256.599 134.82 252.677 138.744 247.773 138.744C242.868 138.744 238.946 134.822 238.946 129.917C238.946 125.015 242.868 121.091 247.773 121.091ZM247.773 147.242C252.675 147.242 256.599 151.164 256.599 156.068C256.599 160.971 252.677 164.895 247.773 164.895C242.868 164.895 238.946 160.971 238.946 156.068C238.946 151.166 242.868 147.242 247.773 147.242ZM210.18 259.69C210.18 259.69 168.994 262.96 121.268 262.96C73.5426 262.96 32.3559 259.69 32.3559 259.69C32.3582 259.69 30.0689 223.406 30.0689 187.122C30.0689 150.838 32.3582 117.823 32.3582 117.823C32.3582 117.823 73.2186 114.553 121.27 114.553C169.322 114.227 210.182 117.823 210.182 117.823C210.18 117.823 212.796 152.472 212.796 187.122C212.796 221.772 210.18 259.69 210.18 259.69ZM247.883 255.114C240.285 255.114 234.044 248.873 234.044 241.275C234.044 233.678 240.285 227.437 247.883 227.437C255.48 227.437 261.721 233.678 261.721 241.275C261.721 248.873 255.48 255.114 247.883 255.114Z" fill="#007C96"/>
<circle cx="247.5" cy="155.5" r="9.5" fill="#AEFFFF"/>
<circle cx="247.5" cy="155.5" r="9.5" fill="#AEFFFF"/>
<circle cx="247.5" cy="130.5" r="9.5" fill="#AEFFFF"/>
<circle cx="247.5" cy="130.5" r="9.5" fill="#AEFFFF"/>
<circle cx="248" cy="242" r="15" fill="#AEFFFF"/>
<circle cx="248" cy="242" r="15" fill="#AEFFFF"/>
<path fill-rule="evenodd" clip-rule="evenodd" d="M181.223 262.986C174.808 253.321 164.558 243.249 159.016 237.804C157.407 236.223 156.195 235.032 155.589 234.354C150.913 229.121 147.332 224.012 144.497 219.077C146.357 219.883 148.457 220.436 150.473 220.55C154.225 220.767 158.182 219.401 159.265 214.836C160.726 208.682 156.814 204.518 151.948 202.446C147.157 200.409 141.024 200.145 137.027 201.845C136.967 201.869 136.914 201.895 136.859 201.931C135.765 198.732 134.845 195.66 133.971 192.741C133.699 191.832 133.431 190.937 133.164 190.058C133.975 189.769 134.683 189.517 135.35 189.295C136.035 189.068 136.664 188.878 137.296 188.716C138.547 188.401 139.847 188.199 141.599 188.105C142.274 188.07 142.789 187.495 142.75 186.823C142.715 186.153 142.143 185.636 141.473 185.674C139.577 185.774 138.121 186 136.698 186.358C135.341 186.703 134.018 187.168 132.442 187.726C132.165 186.847 131.882 185.984 131.594 185.137C132.895 184.236 134.022 183.747 135.181 183.363C135.752 183.174 136.341 183.008 136.963 182.832C137.863 182.578 138.83 182.306 139.909 181.916C140.54 181.689 140.87 180.991 140.644 180.357C140.414 179.725 139.713 179.397 139.084 179.625C138.081 179.987 137.18 180.24 136.31 180.485C135.67 180.665 135.047 180.841 134.414 181.051C133.232 181.445 132.049 181.942 130.747 182.774C129.345 179.075 127.703 175.756 125.414 172.883L123.572 170.876L124.43 165.848C125.304 159.971 125.584 153.913 122.179 152.862L122.173 152.86C122.108 152.845 122.041 152.828 121.977 152.822C116.703 152.137 110.301 158.365 106.487 162.655L105.503 163.795L102.145 163.094C99.0197 162.546 95.2891 162.119 91.9889 162.226L89.0229 162.623V162.448C88.7521 157.487 86.7566 145.486 80.9157 146.017C73.8488 146.656 61.435 168.185 57.6447 181.8C57.1582 183.542 56.7055 185.376 56.2852 187.287C55.4894 187.175 54.6737 187.079 53.8555 187C51.2453 186.749 48.5537 186.665 46.492 186.804C45.8247 186.853 45.3171 187.437 45.362 188.109C45.4069 188.774 45.9931 189.284 46.6641 189.236C48.545 189.105 51.0931 189.182 53.625 189.425C54.3596 189.498 55.0868 189.579 55.7877 189.675C55.446 191.402 55.1342 193.178 54.8498 195.001C53.9384 195.095 53.0304 195.204 52.126 195.312C49.7987 195.592 47.4947 195.868 45.2161 195.872C44.5463 195.872 43.9988 196.416 44 197.09C44 197.76 44.5488 198.305 45.2186 198.305C47.6601 198.303 50.0768 198.012 52.4679 197.723C53.1424 197.641 53.815 197.56 54.4854 197.486C52.4898 212.03 52.4499 228.705 55.5917 241.571C57.6342 249.928 59.8035 256.806 62.4196 262.986H65.0677C62.3169 256.679 60.0721 249.653 57.9561 240.988C54.8543 228.302 54.9378 211.666 56.9746 197.254C58.0347 197.178 59.0886 197.141 60.1401 197.169C60.8123 197.188 61.3724 196.654 61.3898 195.984C61.4085 195.311 60.8772 194.751 60.2024 194.735C59.2483 194.711 58.2942 194.735 57.3462 194.79C57.6007 193.176 57.885 191.597 58.1919 190.061C58.9677 190.212 59.6773 190.374 60.2897 190.55C60.9358 190.733 61.6105 190.362 61.7951 189.718C61.9834 189.072 61.6105 188.395 60.962 188.209C60.286 188.016 59.5176 187.837 58.6907 187.68C59.0911 185.861 59.5251 184.116 59.9879 182.457C63.9069 168.384 76.0825 148.902 81.1312 148.439C84.4652 148.136 86.8898 159.888 86.6054 163.914C86.5481 164.753 87.3401 165.397 88.1533 165.171C92.6895 163.895 101.117 165.179 105.657 166.312C106.11 166.427 106.584 166.272 106.884 165.919C110.234 161.941 115.665 156.304 119.918 155.342L121.527 155.243L121.98 155.592C123.005 157.029 122.688 162.022 121.069 171.036C120.998 171.438 121.134 171.854 121.429 172.134C127.057 177.476 129.166 184.755 131.713 193.55C135.121 205.315 139.315 219.793 153.771 235.974C154.576 236.875 156.006 238.297 157.829 240.109C162.054 244.309 168.389 250.608 173.956 257.394C175.515 259.295 176.956 261.168 178.239 262.986H181.223ZM99.473 228.839C99.1612 230.866 99.1188 233.429 99.9071 234.845L99.907 234.845C100.231 235.433 100.976 235.645 101.562 235.318C102.151 234.991 102.36 234.25 102.034 233.663C101.696 233.048 101.565 231.256 101.884 229.21C102.137 227.558 102.575 226.43 102.897 225.894L102.98 225.779L103.111 225.836C103.196 225.874 103.29 225.917 103.392 225.965C103.967 226.229 104.81 226.617 105.823 226.878C107.57 227.327 109.801 227.379 112.404 226.046C117.568 223.398 117.797 218.468 115.611 214.412C113.494 210.486 109.031 207.028 104.267 206.528C89.7967 205.005 80.6995 217.979 80.9427 229.749C80.9539 230.419 81.5114 230.953 82.1824 230.939C82.8559 230.927 83.3935 230.369 83.376 229.697C83.1541 218.908 91.442 207.627 104.013 208.95C107.866 209.356 111.672 212.245 113.468 215.565C115.21 218.798 114.936 222.01 111.292 223.88C109.291 224.905 107.68 224.837 106.428 224.518C105.726 224.338 105.077 224.047 104.503 223.789C104.186 223.647 103.892 223.514 103.624 223.417C103.519 223.195 103.349 222.999 103.124 222.868C102.506 222.513 102.08 222.234 101.753 221.999C101.437 221.762 101.204 221.557 100.987 221.348C100.853 221.218 100.721 221.083 100.58 220.939C100.206 220.556 99.766 220.106 99.0303 219.494C98.5102 219.064 97.7456 219.135 97.3141 219.653C96.885 220.168 96.9536 220.935 97.4737 221.366C98.1094 221.893 98.4795 222.272 98.8327 222.634C98.9826 222.788 99.1294 222.938 99.2922 223.095C99.7262 223.517 100.205 223.917 100.971 224.411C100.144 225.596 99.7 227.393 99.473 228.839ZM150.995 204.689C155.274 206.509 157.983 209.689 156.898 214.27L156.898 214.27C156.187 217.267 153.749 218.295 150.611 218.119C147.459 217.935 144.058 216.48 142.232 214.863C140.378 211.178 138.9 207.605 137.654 204.171C137.763 204.16 137.873 204.132 137.976 204.087C141.239 202.696 146.673 202.849 150.995 204.689ZM102.328 189.837C100.075 189.837 98.2468 190.902 98.2468 192.216C98.2468 193.528 100.075 194.595 102.328 194.595C104.579 194.595 106.407 193.528 106.407 192.216C106.407 190.902 104.579 189.837 102.328 189.837ZM84.0858 182.806C81.6461 182.806 79.6655 184.993 79.6655 187.682C79.6655 190.371 81.6462 192.555 84.0858 192.555C86.5241 192.555 88.5035 190.371 88.5035 187.682C88.5035 184.993 86.5241 182.806 84.0858 182.806ZM115.586 182.582C113.148 182.582 111.168 184.766 111.168 187.455C111.168 190.144 113.148 192.328 115.586 192.328C118.024 192.328 120.006 190.144 120.006 187.455C120.006 184.766 118.024 182.582 115.586 182.582Z" fill="white"/>
</svg>
